<svg width="152" height="59" viewBox="0 0 152 59" fill="none" xmlns="http://www.w3.org/2000/svg">
  <path d="M28.0277 43.9753C28.0277 47.9411 26.6407 51.3616 23.9144 54.2368C21.1403 57.112 17.8402 58.5 14.0138 58.5C11.3833 58.5 8.89616 57.7564 6.60038 56.3188C4.35242 54.8812 2.58276 52.8983 1.38704 50.3701C1.05223 49.577 1.00441 48.8829 1.29138 48.1889C1.53052 47.4453 1.96098 46.9 2.67841 46.553C3.34802 46.1565 4.06545 46.1069 4.78288 46.3547C5.50032 46.6026 6.02643 47.0983 6.36124 47.7923C7.93959 51.1137 10.4745 52.7496 14.0138 52.7496C16.3096 52.7496 18.3184 51.9069 19.9446 50.2214C21.6186 48.4864 22.4796 46.4539 22.5274 44.124V40.9513C19.9446 42.9342 17.0749 43.9753 14.0617 43.9753C10.1875 43.9753 6.88735 42.5377 4.11328 39.712C1.33921 36.8864 0 33.4659 0 29.4505C0 25.3856 1.33921 21.9651 4.06545 19.1395C6.79169 16.3138 10.0919 14.9258 14.0138 14.9258C17.888 14.9258 21.1882 16.3138 23.9144 19.1395C26.6885 22.0147 28.0277 25.4352 28.0277 29.4505V43.9753ZM14.0138 38.2249C16.3096 38.2249 18.3184 37.3326 19.9925 35.5975C21.6665 33.8625 22.5274 31.7804 22.5274 29.401C22.5274 26.9719 21.6665 24.8899 19.9925 23.1548C18.2228 21.4694 16.2618 20.6266 14.0138 20.6266C11.6702 20.6266 9.66142 21.4694 8.03524 23.1548C6.36123 24.8899 5.50032 26.9719 5.50032 29.401C5.50032 31.7804 6.36123 33.8625 8.03524 35.5975C9.66142 37.3821 11.6702 38.2249 14.0138 38.2249Z" fill="#1F75FE"/>
  <path d="M44.9591 43.9753C41.1328 43.9753 37.8326 42.5377 35.0586 39.712C32.2845 36.8368 30.9453 33.4163 30.9453 29.4505C30.9453 25.4352 32.3323 22.0147 35.0586 19.1395C37.7848 16.3138 41.085 14.9258 44.9591 14.9258C48.8811 14.9258 52.1813 16.3138 54.9075 19.1395C57.6338 21.9651 58.973 25.3856 58.973 29.4505C58.973 33.4659 57.6338 36.8864 54.9075 39.712C52.1335 42.5377 48.8333 43.9753 44.9591 43.9753ZM44.9591 20.6266C42.6155 20.6266 40.6067 21.4694 38.9805 23.1548C37.3065 24.8899 36.4456 26.9719 36.4456 29.401C36.4456 31.7804 37.3065 33.8625 38.9805 35.5975C40.6067 37.3326 42.6155 38.2249 44.9591 38.2249C47.3027 38.2249 49.3116 37.3326 50.9856 35.5975C52.6117 33.7633 53.4248 31.7309 53.4248 29.401C53.4248 27.0711 52.6117 24.9394 50.9856 23.1548C49.2637 21.4694 47.2071 20.6266 44.9591 20.6266Z" fill="#1F75FE"/>
  <path d="M62.1775 3.32563C62.1775 2.53247 62.4645 1.88803 63.0384 1.29316C63.5645 0.747862 64.2341 0.5 64.9994 0.5C65.669 0.5 66.3386 0.747862 66.9604 1.29316C67.4865 1.9376 67.7256 2.63162 67.7256 3.32563V17.7512C70.2606 15.7683 73.0825 14.7769 76.1913 14.7769C80.1133 14.7769 83.4135 16.1649 86.1397 18.9905C88.866 21.8162 90.2052 25.2367 90.2052 29.3016C90.2052 33.317 88.866 36.7375 86.1397 39.5631C83.3657 42.4383 80.0655 43.8263 76.1913 43.8263C72.365 43.8263 69.0648 42.3887 66.2908 39.5631C63.5167 36.6879 62.1775 33.2674 62.1775 29.3016V3.32563ZM67.6778 29.3512C67.6778 31.7802 68.5387 33.8623 70.2127 35.5477C71.8389 37.2828 73.8477 38.1751 76.1913 38.1751C78.535 38.1751 80.5438 37.2828 82.2178 35.5477C83.8439 33.7136 84.657 31.6811 84.657 29.3512C84.657 27.0213 83.8439 24.8897 82.2178 23.105C80.4481 21.4196 78.4393 20.5769 76.1913 20.5769C73.8477 20.5769 71.8389 21.4196 70.2127 23.105C68.5387 24.8401 67.6778 26.9221 67.6778 29.3016V29.3512Z" fill="#1F75FE"/>
  <path d="M96.2316 9.17498C95.4663 9.17498 94.7967 8.92712 94.2706 8.38182C93.6967 7.78695 93.4097 7.14251 93.4097 6.34935C93.4097 5.55619 93.6967 4.91175 94.2706 4.31688C94.8446 3.72201 95.4663 3.42457 96.2316 3.42457C96.9968 3.42457 97.6186 3.72201 98.1926 4.31688C98.7187 4.86217 98.9578 5.55619 98.9578 6.34935C98.9578 7.14251 98.7187 7.83652 98.1926 8.38182C97.6665 8.92712 96.9968 9.17498 96.2316 9.17498ZM93.4575 17.8006C93.4575 17.0074 93.7445 16.363 94.3184 15.7681C94.8446 15.2228 95.5142 14.975 96.2794 14.975C96.949 14.975 97.6186 15.2228 98.2404 15.7681C98.7665 16.4126 99.0057 17.1066 99.0057 17.8006V41.1492C99.0057 41.9424 98.7665 42.6364 98.2404 43.1817C97.6665 43.7766 97.0447 44.074 96.2794 44.074C95.5142 44.074 94.8446 43.7766 94.3184 43.1817C93.7445 42.6364 93.4575 41.9424 93.4575 41.1492V17.8006Z" fill="#1F75FE"/>
  <path d="M123.303 38.2247C123.972 38.2247 124.642 38.4725 125.264 39.0178C125.79 39.6623 126.029 40.3563 126.029 41.0503C126.029 41.7443 125.79 42.4383 125.264 43.0828C124.69 43.6776 124.068 43.9751 123.303 43.9751H105.941C104.745 43.9751 103.932 43.4298 103.406 42.3392C102.928 41.0007 103.023 39.9597 103.693 39.2657L117.659 20.6264H105.797C105.032 20.6264 104.41 20.329 103.836 19.7341C103.31 19.0897 103.071 18.3957 103.071 17.7017C103.071 17.0076 103.31 16.3136 103.836 15.6692C104.458 15.1239 105.128 14.876 105.797 14.876H123.159C124.403 14.876 125.216 15.4213 125.694 16.5119C126.268 17.6025 126.172 18.594 125.407 19.5358L111.441 38.2247H123.303Z" fill="#1F75FE"/>
  <path d="M152 46.5035C152 49.7753 150.852 52.6009 148.604 54.8812C146.308 57.2111 143.63 58.4009 140.473 58.4009C138.225 58.4009 136.216 57.806 134.399 56.6163C132.534 55.3769 131.099 53.7411 130.142 51.7086C129.807 50.9154 129.76 50.2214 130.047 49.5274C130.286 48.7838 130.716 48.2385 131.434 47.8915C132.103 47.5445 132.773 47.4949 133.49 47.7924C134.256 48.0898 134.782 48.5855 135.069 49.23C136.264 51.5599 138.082 52.7 140.473 52.7C142.195 52.7 143.63 52.1052 144.778 50.9154C145.926 49.7257 146.5 48.2385 146.5 46.5035V42.3394C144.778 43.43 142.865 43.9753 140.76 43.9753C137.651 43.9753 135.021 42.8351 132.868 40.6043C130.716 38.324 129.568 35.5975 129.52 32.4249V17.9993C129.52 17.3053 129.76 16.6113 130.286 15.9668C130.907 15.4215 131.577 15.1737 132.247 15.1737C132.916 15.1737 133.586 15.4215 134.208 15.9668C134.734 16.6113 134.973 17.3053 134.973 17.9993V32.3753C134.973 34.0112 135.547 35.4488 136.695 36.589C137.795 37.7291 139.134 38.324 140.712 38.324C142.291 38.324 143.678 37.7291 144.778 36.589C145.878 35.4488 146.452 34.0112 146.452 32.3753V17.9993C146.452 17.3053 146.691 16.6113 147.217 15.9668C147.839 15.4215 148.508 15.1737 149.178 15.1737C149.896 15.1737 150.565 15.4215 151.187 15.9668C151.713 16.6113 151.952 17.3053 151.952 17.9993V46.5035H152Z" fill="#1F75FE"/>
  <path d="M16.7401 9.91898H11.2877C9.80496 9.91898 8.56141 8.67966 8.56141 7.09334C8.56141 5.5566 9.75713 4.26771 11.2877 4.26771H16.7401C18.2228 4.26771 19.4664 5.50702 19.4664 7.09334C19.4664 8.67966 18.2228 9.91898 16.7401 9.91898Z" fill="#1F75FE"/>
</svg>
